<?xml version="1.0" encoding="UTF-8"?>
<svg width="23px" height="21px" viewBox="0 0 23 21" version="1.1" xmlns="http://www.w3.org/2000/svg" xmlns:xlink="http://www.w3.org/1999/xlink">
    <g id="Page-1" stroke="none" stroke-width="1" fill="none" fill-rule="evenodd">
        <g id="icon">
            <g id="browser" fill="#ffffff">
                <polygon id="Path" points="12.9375 14.375 12.9375 12.9375 17.25 12.9375 17.25 14.375"></polygon>
                <polygon id="Path" points="12.9375 11.5 12.9375 10.0625 20.125 10.0625 20.125 11.5"></polygon>
                <polygon id="Path" points="12.9375 8.625 12.9375 7.1875 20.125 7.1875 20.125 8.625"></polygon>
                <rect id="Rectangle" x="2.875" y="7.1875" width="7.1875" height="7.1875"></rect>
                <path d="M0,0 L0,20.125 L22.9992812,20.125 L23,0 L0,0 Z M15.8125,1.4375 L15.8125,2.875 L7.1875,2.875 L7.1875,1.4375 L15.8125,1.4375 Z M5.75,1.4375 L5.75,2.875 L4.3125,2.875 L4.3125,1.4375 L5.75,1.4375 Z M1.4375,1.4375 L2.875,1.4375 L2.875,2.875 L1.4375,2.875 L1.4375,1.4375 Z M21.5617813,18.6875 L1.4375,18.6875 L1.4375,4.3125 L21.5617813,4.3125 L21.5617813,18.6875 Z M21.5625,2.875 L18.6875,2.875 L18.6875,1.4375 L21.5625,1.4375 L21.5625,2.875 Z" id="Shape" fill-rule="nonzero"></path>
            </g>
        </g>
    </g>
</svg>